name sv07_filtered_grf.mot
datacolumns 37
datarows 5
range 0.002500 0.004500
endheader
time	1_ground_force_vx	1_ground_force_vy	1_ground_force_vz	1_ground_force_px	1_ground_force_py	1_ground_force_pz	1_ground_torque_x	1_ground_torque_y	1_ground_torque_z	2_ground_force_vx	2_ground_force_vy	2_ground_force_vz	2_ground_force_px	2_ground_force_py	2_ground_force_pz	2_ground_torque_x	2_ground_torque_y	2_ground_torque_z	3_ground_force_vx	3_ground_force_vy	3_ground_force_vz	3_ground_force_px	3_ground_force_py	3_ground_force_pz	3_ground_torque_x	3_ground_torque_y	3_ground_torque_z	4_ground_force_vx	4_ground_force_vy	4_ground_force_vz	4_ground_force_px	4_ground_force_py	4_ground_force_pz	4_ground_torque_x	4_ground_torque_y	4_ground_torque_z
            0.002500	           -8.330813	          515.897528	          495.838490	            0.116169	            0.000000	            1.804399	            0.139918	           -8.664597	           -8.327701	            0.000000	           -0.000000	           -0.000000	           -0.153622	            0.000000	            0.213522	            0.000000	            0.000000	           -0.000000	           14.351470	           -0.383413	           -2.420320	            0.381235	            1.022154	            1.096378	           -0.103884	            0.002775	            0.017520	          -10.206616	            4.656264	           -7.366437	           -0.492210	            1.020155	            1.098985	           -0.317318	            0.144761	           -0.229018
            0.003000	           -8.323045	          518.349274	          496.831578	            0.116036	            0.000000	            1.804438	            0.139900	           -8.712829	           -8.351143	            0.000000	           -0.000000	           -0.000000	           -0.153622	            0.000000	            0.213522	            0.000000	            0.000000	           -0.000000	           14.670427	           -0.259803	           -2.389055	            0.381235	            1.022154	            1.096378	           -0.102399	            0.001813	            0.016676	           -9.772058	            5.388418	           -9.219322	           -0.492210	            1.020155	            1.098985	           -0.384392	            0.211958	           -0.362650
            0.003500	           -8.315866	          520.837172	          497.841836	            0.115905	            0.000000	            1.804477	            0.139895	           -8.761848	           -8.375006	            0.000000	           -0.000000	           -0.000000	           -0.153622	            0.000000	            0.213522	            0.000000	            0.000000	           -0.000000	           14.977902	           -0.138420	           -2.357719	            0.381241	            1.022150	            1.096373	           -0.100994	            0.000933	            0.015898	           -9.328128	            6.196804	          -11.192632	           -0.492211	            1.020154	            1.098986	           -0.428511	            0.284666	           -0.514161
            0.004000	           -8.309396	          523.356425	          498.867568	            0.115777	            0.000000	            1.804513	            0.139903	           -8.811597	           -8.399286	            0.000000	           -0.000000	           -0.000000	           -0.153622	            0.000000	            0.213522	            0.000000	            0.000000	           -0.000000	           15.272891	           -0.019873	           -2.326459	            0.381247	            1.022147	            1.096367	           -0.099670	            0.000130	            0.015182	           -8.877118	            7.078538	          -13.280445	           -0.492212	            1.020154	            1.098988	           -0.450921	            0.359561	           -0.674592
            0.004500	           -8.303766	          525.902248	          499.907068	            0.115651	            0.000000	            1.804548	            0.139927	           -8.862019	           -8.423972	            0.000000	           -0.000000	           -0.000000	           -0.153622	            0.000000	            0.213522	            0.000000	            0.000000	           -0.000000	           15.554501	            0.095260	           -2.295410	            0.381252	            1.022144	            1.096361	           -0.098425	           -0.000603	            0.014525	           -8.421510	            8.030069	          -15.475581	           -0.492213	            1.020153	            1.098989	           -0.455878	            0.434689	           -0.837734
